<svg xmlns="http://www.w3.org/2000/svg" width="129.028" height="115.203" viewBox="0 0 129.028 115.203"><defs><style>.a{fill:#ebaf36;}</style></defs><g transform="translate(-32 -48)"><path class="a" d="M288,280h9.216v48.385H288Z" transform="translate(-182.27 -165.182)"/><path class="a" d="M208,344h9.216v29.953H208Z" transform="translate(-125.311 -210.75)"/><path class="a" d="M128,376h9.216v20.737H128Z" transform="translate(-68.351 -233.533)"/><path class="a" d="M448,160h9.216v82.946H448Z" transform="translate(-296.189 -79.743)"/><path class="a" d="M368,224h9.216v64.514H368Z" transform="translate(-239.23 -125.311)"/><path class="a" d="M48,416h9.216v9.216H48Z" transform="translate(-11.392 -262.013)"/><path class="a" d="M158.723,48H144.9a2.3,2.3,0,0,0,0,4.608h8.262L120.9,84.865H110.223a23.041,23.041,0,1,0-27.933,24.79l-7.467,7.467H57.345a2.3,2.3,0,0,0-1.629.675L32.675,140.837a2.3,2.3,0,1,0,3.259,3.259L58.3,121.73H75.777a2.3,2.3,0,0,0,1.629-.675l10.87-10.87a23.073,23.073,0,0,0,21.946-20.712h11.636a2.3,2.3,0,0,0,1.629-.675l32.932-32.932v8.262a2.3,2.3,0,1,0,4.608,0V50.3A2.3,2.3,0,0,0,158.723,48ZM87.3,84.865a6.912,6.912,0,0,1,2.3,13.428v2.7a2.3,2.3,0,0,1-4.608,0v-2.3h-2.3a2.3,2.3,0,0,1,0-4.608H87.3a2.3,2.3,0,0,0,0-4.608,6.912,6.912,0,0,1-2.3-13.428v-2.7a2.3,2.3,0,0,1,4.608,0v2.3h2.3a2.3,2.3,0,0,1,0,4.608H87.3a2.3,2.3,0,1,0,0,4.608Z"/></g></svg>