<svg xmlns="http://www.w3.org/2000/svg" width="111.111" height="97.932" viewBox="0 0 111.111 97.932"><defs><style>.a{fill:#ebaf36;}</style></defs><g transform="translate(0 -30.366)"><path class="a" d="M63.181,342.279a1.628,1.628,0,0,0-1.988-1.162l-14.015,3.678a2.714,2.714,0,0,1-3.4-2.625v-2.846h8.38a12.145,12.145,0,0,0,12.132-12.132v-1.14a2.717,2.717,0,0,0-2.714-2.714H34.361a1.628,1.628,0,0,0,0,3.257H61.03v.6a8.885,8.885,0,0,1-8.875,8.875h-19.9a8.885,8.885,0,0,1-8.875-8.875v-.6h3.434a1.628,1.628,0,0,0,0-3.257H22.836a2.717,2.717,0,0,0-2.714,2.714v1.14a12.145,12.145,0,0,0,12.132,12.132h8.265v2.846a5.971,5.971,0,0,0,7.487,5.775l14.015-3.678A1.629,1.629,0,0,0,63.181,342.279Z" transform="translate(-15.755 -229.393)"/><path class="a" d="M59.884,121.038a2.575,2.575,0,0,1,.954,2v.125a15.474,15.474,0,0,0,1.233,6.033,2.1,2.1,0,0,0-.252,1v4.345a7.313,7.313,0,1,0,14.625,0V130.2a2.1,2.1,0,0,0-.283-1.053,15.463,15.463,0,0,0,1.264-6.105,2.6,2.6,0,0,1,.967-2.01,14.619,14.619,0,1,0-18.508.011Zm13.3,13.5a4.056,4.056,0,0,1-8.112,0v-3.2h8.112ZM68.969,98.355a11.362,11.362,0,0,1,7.359,20.154,5.841,5.841,0,0,0-2.159,4.529,12.2,12.2,0,0,1-1.1,5.043H70.76v-8.028l4.2-5.007a1.628,1.628,0,1,0-2.5-2.092l-3.328,3.971L65.8,112.953a1.628,1.628,0,0,0-2.5,2.092l4.2,5.007v8.028H65.136a12.2,12.2,0,0,1-1.041-4.918v-.125a5.82,5.82,0,0,0-2.149-4.52,11.362,11.362,0,0,1,7.023-20.162Z" transform="translate(-42.682 -50.683)"/><path class="a" d="M7.931,160.72A1.629,1.629,0,0,0,6.3,159.092H1.628a1.628,1.628,0,1,0,0,3.257H6.3A1.629,1.629,0,0,0,7.931,160.72Z" transform="translate(0 -100.791)"/><path class="a" d="M76.206,61.77A1.628,1.628,0,1,0,79.2,60.487l-1.653-3.856a1.628,1.628,0,0,0-2.993,1.283Z" transform="translate(-58.271 -19.792)"/><path class="a" d="M18.522,93.021l3.368,2.718A1.628,1.628,0,0,0,23.935,93.2l-3.368-2.717a1.628,1.628,0,1,0-2.045,2.535Z" transform="translate(-14.028 -46.791)"/><path class="a" d="M207.206,160.72a1.629,1.629,0,0,0,1.628,1.628h4.674a1.628,1.628,0,0,0,0-3.257h-4.674A1.628,1.628,0,0,0,207.206,160.72Z" transform="translate(-162.239 -100.791)"/><path class="a" d="M147.693,62.625a1.627,1.627,0,0,0,2.138-.855l1.653-3.856a1.628,1.628,0,1,0-2.993-1.283l-1.653,3.856A1.628,1.628,0,0,0,147.693,62.625Z" transform="translate(-114.868 -19.791)"/><path class="a" d="M196.938,96.1a1.622,1.622,0,0,0,1.021-.361l3.368-2.718a1.628,1.628,0,1,0-2.045-2.535L195.914,93.2a1.628,1.628,0,0,0,1.024,2.9Z" transform="translate(-152.924 -46.791)"/><path class="a" d="M348.254,56.307a2.576,2.576,0,0,1,.954,2v.125a15.48,15.48,0,0,0,1.233,6.033,2.1,2.1,0,0,0-.252,1v4.345a7.313,7.313,0,0,0,14.625,0V65.465a2.1,2.1,0,0,0-.283-1.053,15.463,15.463,0,0,0,1.264-6.106,2.6,2.6,0,0,1,.967-2.01A14.628,14.628,0,0,0,370.7,38.682a1.629,1.629,0,0,0-2.938,1.406,11.372,11.372,0,0,1-3.06,13.69,5.842,5.842,0,0,0-2.16,4.529,12.2,12.2,0,0,1-1.1,5.043H359.13V55.321l4.2-5.007a1.628,1.628,0,1,0-2.5-2.092L357.5,52.194l-3.328-3.971a1.628,1.628,0,0,0-2.5,2.092l4.2,5.007V63.35h-2.367a12.209,12.209,0,0,1-1.041-4.918v-.125a5.821,5.821,0,0,0-2.149-4.52,11.363,11.363,0,0,1,13.2-18.443,1.629,1.629,0,0,0,1.727-2.762,14.53,14.53,0,0,0-7.949-2.214,14.619,14.619,0,0,0-9.04,25.94Zm13.3,13.5a4.056,4.056,0,1,1-8.112,0v-3.2h8.112Z" transform="translate(-268.473 0)"/><path class="a" d="M254.12,258.678H215.383a2.717,2.717,0,0,0-2.714,2.714v1.14A12.145,12.145,0,0,0,224.8,274.664h8.957v1.61a3.939,3.939,0,0,1-2.938,3.808L213.984,284.5l-1.691-7.764a5.355,5.355,0,0,0-10.464,0l-2.066,9.489a21.767,21.767,0,0,1-9.19,13.511l-3.206,2.149a2.828,2.828,0,0,0,1.575,5.178H225.18a2.828,2.828,0,0,0,1.575-5.178l-3.206-2.149a21.751,21.751,0,0,1-8.818-12.065l16.915-4.439a7.2,7.2,0,0,0,5.368-6.959v-1.61H244.7a12.146,12.146,0,0,0,12.132-12.132v-1.14a2.717,2.717,0,0,0-2.714-2.714Zm-32.384,43.763,2.036,1.365H190.351l2.035-1.365a25.009,25.009,0,0,0,10.559-15.523l2.066-9.489a2.1,2.1,0,0,1,4.1,0l2.066,9.489a25.009,25.009,0,0,0,10.558,15.523Zm31.841-39.909a8.885,8.885,0,0,1-8.875,8.875H224.8a8.885,8.885,0,0,1-8.875-8.875v-.6h37.651v.6Z" transform="translate(-145.723 -178.765)"/><circle class="a" cx="2.483" cy="2.483" r="2.483" transform="translate(58.855 115.235)"/></g></svg>