<svg xmlns="http://www.w3.org/2000/svg" width="129.974" height="130.069" viewBox="0 0 129.974 130.069"><defs><style>.a{fill:#ebaf36;}</style></defs><g transform="translate(-0.188)"><path class="a" d="M124.829,28.844a10.682,10.682,0,0,0-14.574,3.9l-9.466,16.4V35.566a2.54,2.54,0,0,0-5.081,0V57.944l-27.9,48.326a2.514,2.514,0,0,0-.325,1l-1.91,17.719H5.269V5.081H95.708V12.7a2.54,2.54,0,1,0,5.081,0V2.54A2.541,2.541,0,0,0,98.248,0H2.728A2.54,2.54,0,0,0,.188,2.54V127.529a2.54,2.54,0,0,0,2.54,2.54h95.52a2.541,2.541,0,0,0,2.54-2.54V91.824l27.947-48.405a10.683,10.683,0,0,0-3.907-14.574ZM72.115,111.692l7.324,4.227-8.444,6.168Zm23.593,13.3H75.638l9.948-7.268a2.575,2.575,0,0,0,.7-.78l9.42-16.315ZM83.158,112.2l-9.682-5.589,37.184-64.4L120.34,47.8Zm41.175-71.322L122.88,43.4,113.2,37.809l1.453-2.52a5.588,5.588,0,0,1,9.679,5.589Z"/><path class="a" d="M378.728,85a2.541,2.541,0,1,0,1.8.744A2.555,2.555,0,0,0,378.728,85Z" transform="translate(-280.48 -63.406)"/><path class="a" d="M141.045,106H89.728a2.54,2.54,0,1,0,0,5.081h51.317a2.54,2.54,0,0,0,0-5.081Z" transform="translate(-64.898 -79.072)"/><path class="a" d="M141.045,162H89.728a2.54,2.54,0,0,0,0,5.081h51.317a2.54,2.54,0,0,0,0-5.081Z" transform="translate(-64.898 -120.845)"/><path class="a" d="M236.341,218H217.478a2.54,2.54,0,0,0,0,5.081h18.863a2.54,2.54,0,0,0,0-5.081Z" transform="translate(-160.194 -162.619)"/><path class="a" d="M143.585,276.54a2.541,2.541,0,0,0-2.54-2.54H89.728a2.54,2.54,0,1,0,0,5.081h51.317A2.541,2.541,0,0,0,143.585,276.54Z" transform="translate(-64.898 -204.392)"/><path class="a" d="M204.646,332.54a2.541,2.541,0,0,0-2.54-2.54H186.228a2.54,2.54,0,0,0,0,5.081h15.878A2.541,2.541,0,0,0,204.646,332.54Z" transform="translate(-136.883 -246.166)"/><path class="a" d="M89.728,391.081h22.356a2.54,2.54,0,1,0,0-5.081H89.728a2.54,2.54,0,1,0,0,5.081Z" transform="translate(-64.898 -287.94)"/><path class="a" d="M89.728,223.081h16.934a2.54,2.54,0,1,0,0-5.081H89.728a2.54,2.54,0,1,0,0,5.081Z" transform="translate(-64.898 -162.619)"/><path class="a" d="M89.728,335.081h13.083a2.54,2.54,0,1,0,0-5.081H89.728a2.54,2.54,0,1,0,0,5.081Z" transform="translate(-64.898 -246.166)"/></g></svg>