<svg xmlns="http://www.w3.org/2000/svg" width="99.73" height="107.764" viewBox="0 0 99.73 107.764"><defs><style>.a{fill:#ebaf36;}</style></defs><g transform="translate(-23.636 -4.938)"><path class="a" d="M121.028,101.75a6.168,6.168,0,0,0-2.441-1.159V90.58a4.774,4.774,0,0,0-4.77-4.708H74.8V74.067H96.232a4.742,4.742,0,0,0,4.754-4.687V63.906c9.656-.435,19.1-3.405,19.1-8.564V13.571c0-5.6-11.126-8.62-21.572-8.62s-21.572,3.021-21.572,8.62V55.343c0,5.579,11.05,8.6,21.464,8.619v5.418a2.164,2.164,0,0,1-2.178,2.111H50.792a2.164,2.164,0,0,1-2.179-2.111V63.962c10.414-.021,21.464-3.04,21.464-8.619v-41.8c0-5.6-11.126-8.606-21.572-8.606S26.934,7.972,26.934,13.571V55.343c0,5.159,9.447,8.129,19.1,8.564V69.38a4.742,4.742,0,0,0,4.754,4.686H72.224V85.872H33.206a4.774,4.774,0,0,0-4.77,4.708v10.012a6.147,6.147,0,1,0,2.576,0V90.58a2.2,2.2,0,0,1,2.194-2.132H50.545v12.145a6.1,6.1,0,1,0,2.576,0V88.448h19.1v12.146A6.123,6.123,0,0,0,73.5,112.7a6.2,6.2,0,0,0,.764-.047A6.125,6.125,0,0,0,74.8,100.59V88.448H93.9v11.926a6.126,6.126,0,0,0,1.324,12.109,6.259,6.259,0,0,0,.767-.047,6.111,6.111,0,0,0,5.3-6.829,6.039,6.039,0,0,0-4.815-5.232V88.448h17.338a2.2,2.2,0,0,1,2.194,2.132v10.014a5.874,5.874,0,0,0-3.577,2.221,6.107,6.107,0,1,0,8.594-1.064ZM98.559,7.527c11.754,0,18.971,3.52,18.971,6.044s-7.217,6.044-18.971,6.044-18.971-3.52-18.971-6.044S86.805,7.527,98.559,7.527Zm-19.037,10.3c3.864,2.858,11.618,4.365,19,4.365s15.132-1.507,19-4.365v9.638c0,2.524-7.242,6.044-19,6.044s-19-3.52-19-6.044Zm0,13.892c3.864,2.858,11.618,4.365,19,4.365s15.132-1.507,19-4.365v9.637c0,2.524-7.242,6.044-19,6.044s-19-3.521-19-6.044Zm0,23.626V45.609c3.864,2.858,11.618,4.365,19,4.365s15.132-1.507,19-4.365v9.734c0,2.524-7.242,6.044-19,6.044S79.522,57.866,79.522,55.343ZM67.5,27.5s-.034.008-.034.013c-.1,2.52-7.3,5.992-18.972,5.992a51.252,51.252,0,0,1-7.224-.49,1.279,1.279,0,1,0-.357,2.533,54.109,54.109,0,0,0,7.6.532c7.372,0,15.124-1.505,18.988-4.359v9.632c0,2.524-7.242,6.044-19,6.044s-19-3.521-19-6.044V31.7a16.149,16.149,0,0,0,2.034,1.223,1.272,1.272,0,0,0,1.83-1.151v-.016a1.277,1.277,0,0,0-.716-1.147c-2.087-1.016-3.129-2.148-3.14-3.132l-.007-9.653c3.864,2.858,11.618,4.365,19,4.365s15.132-1.507,19-4.365ZM48.465,7.527c11.754,0,18.971,3.52,18.971,6.044s-7.217,6.044-18.971,6.044-18.971-3.52-18.971-6.044S36.711,7.527,48.465,7.527ZM29.51,55.343V45.609c3.864,2.858,11.618,4.365,19,4.365s15.132-1.507,19-4.365v9.734c0,2.524-7.242,6.044-19,6.044S29.51,57.866,29.51,55.343Zm3.834,51.235A3.548,3.548,0,1,1,29.8,103.03a3.548,3.548,0,0,1,3.548,3.548Zm21.981,0a3.548,3.548,0,1,1-3.548-3.548,3.548,3.548,0,0,1,3.548,3.548Zm20.368-2.8a3.547,3.547,0,1,1-2.617-.723,3.588,3.588,0,0,1,.443-.027,3.52,3.52,0,0,1,2.174.751Zm23.074,2.142a3.546,3.546,0,1,1-3.518-3.112,3.546,3.546,0,0,1,3.518,3.112Zm18.9,4.177a3.547,3.547,0,1,1-.872-7.041,3.587,3.587,0,0,1,.443-.027,3.548,3.548,0,0,1,.429,7.068Z" transform="translate(0 0)"/><path class="a" d="M101.412,103.388a1.288,1.288,0,0,0-1.462,1.255,1.32,1.32,0,0,0,1.159,1.3,54.411,54.411,0,0,0,7.289.477,55.6,55.6,0,0,0,5.819-.3,1.32,1.32,0,0,0,1.194-1.385,1.288,1.288,0,0,0-1.421-1.181,53,53,0,0,1-5.592.29,51.755,51.755,0,0,1-6.986-.459Z" transform="translate(-59.934 -77.309)"/><path class="a" d="M182.62,95.749a3.13,3.13,0,1,0-3.13-3.13A3.13,3.13,0,0,0,182.62,95.749Zm0-3.683a.554.554,0,1,1-.554.554.554.554,0,0,1,.554-.554Z" transform="translate(-122.401 -66.403)"/><path class="a" d="M101.063,169.7a54.323,54.323,0,0,0,7.335.483,55.626,55.626,0,0,0,5.865-.3,1.288,1.288,0,0,0-.273-2.561,53.007,53.007,0,0,1-5.592.29,51.765,51.765,0,0,1-6.986-.459,1.288,1.288,0,1,0-.349,2.552Z" transform="translate(-59.933 -127.385)"/><path class="a" d="M182.62,159.51a3.13,3.13,0,1,0-3.13-3.13A3.13,3.13,0,0,0,182.62,159.51Zm0-3.684a.554.554,0,1,1-.554.554A.554.554,0,0,1,182.62,155.827Z" transform="translate(-122.401 -116.479)"/><path class="a" d="M113.99,231.084a53.093,53.093,0,0,1-5.592.291,51.76,51.76,0,0,1-6.986-.459,1.288,1.288,0,0,0-.349,2.552,54.368,54.368,0,0,0,7.335.483,55.61,55.61,0,0,0,5.865-.3,1.288,1.288,0,1,0-.273-2.561Z" transform="translate(-59.933 -177.464)"/><path class="a" d="M182.62,217.014a3.13,3.13,0,1,0,3.13,3.129A3.129,3.129,0,0,0,182.62,217.014Zm0,3.683a.554.554,0,1,1,.554-.554A.554.554,0,0,1,182.62,220.7Z" transform="translate(-122.401 -166.555)"/><path class="a" d="M334.447,105.94a54.383,54.383,0,0,0,7.335.483,55.638,55.638,0,0,0,5.865-.3,1.288,1.288,0,0,0-.273-2.561,53,53,0,0,1-5.592.29,51.751,51.751,0,0,1-6.986-.459,1.288,1.288,0,1,0-.349,2.552Z" transform="translate(-243.222 -77.309)"/><path class="a" d="M416,95.749a3.13,3.13,0,1,0-3.13-3.13A3.129,3.129,0,0,0,416,95.749Zm0-3.683a.554.554,0,1,1-.554.554.554.554,0,0,1,.554-.554Z" transform="translate(-305.69 -66.403)"/><path class="a" d="M334.447,169.7a54.319,54.319,0,0,0,7.335.483,55.631,55.631,0,0,0,5.865-.3,1.288,1.288,0,0,0-.273-2.561,53,53,0,0,1-5.592.29,51.762,51.762,0,0,1-6.986-.459,1.288,1.288,0,0,0-.349,2.552Z" transform="translate(-243.223 -127.385)"/><path class="a" d="M416,159.51a3.13,3.13,0,1,0-3.13-3.13A3.13,3.13,0,0,0,416,159.51Zm0-3.684a.554.554,0,1,1-.554.554A.554.554,0,0,1,416,155.827Z" transform="translate(-305.69 -116.479)"/><path class="a" d="M347.646,233.642a1.288,1.288,0,1,0-.273-2.561,53.094,53.094,0,0,1-5.592.29,51.767,51.767,0,0,1-6.986-.459,1.288,1.288,0,1,0-.349,2.552,54.359,54.359,0,0,0,7.335.483,55.6,55.6,0,0,0,5.865-.3Z" transform="translate(-243.222 -177.461)"/><path class="a" d="M416,223.273a3.13,3.13,0,1,0-3.13-3.13A3.129,3.129,0,0,0,416,223.273Zm0-3.683a.554.554,0,1,1-.554.554A.554.554,0,0,1,416,219.59Z" transform="translate(-305.69 -166.555)"/></g></svg>