<svg xmlns="http://www.w3.org/2000/svg" width="125.208" height="123.334" viewBox="0 0 125.208 123.334"><defs><style>.a{fill:#ebaf36;}</style></defs><g transform="translate(0 -0.066)"><path class="a" d="M95.542,294.444A29.416,29.416,0,0,0,74,303.721a45.086,45.086,0,0,0-28.288-9.843h-.081a44.747,44.747,0,0,0-32.3,13.564C4.693,316.26-.026,328.313,0,341.392a2.781,2.781,0,0,0,.783,1.914,2.665,2.665,0,0,0,1.914.783l70.787-.135c.162.189.323.351.486.54a29.671,29.671,0,1,0,21.572-50.05ZM5.475,338.668a42.171,42.171,0,0,1,11.7-27.478,39.326,39.326,0,0,1,28.449-11.919h.081a39.8,39.8,0,0,1,24.971,8.683,29.729,29.729,0,0,0-1.025,30.607Zm90.067,9.708a24.27,24.27,0,1,1,24.269-24.27A24.269,24.269,0,0,1,95.542,348.376Zm0,0" transform="translate(0 -230.386)"/><path class="a" d="M107.952,57.073a28.5,28.5,0,1,0-28.5-28.5A28.5,28.5,0,0,0,107.952,57.073Zm0-51.614A23.11,23.11,0,1,1,84.842,28.57a23.11,23.11,0,0,1,23.11-23.111Zm0,0" transform="translate(-62.298)"/><path class="a" d="M404.044,381.749h-8.225v-8.224a2.7,2.7,0,1,0-5.393,0v8.224H382.2a2.7,2.7,0,1,0,0,5.393h8.225v8.225a2.7,2.7,0,1,0,5.393,0v-8.225h8.225a2.7,2.7,0,0,0,0-5.393Zm0,0" transform="translate(-297.581 -290.726)"/></g></svg>