<svg xmlns="http://www.w3.org/2000/svg" width="121.652" height="121.689" viewBox="0 0 121.652 121.689"><defs><style>.a{fill:#ebaf36;}</style></defs><g transform="translate(-0.501)"><path class="a" d="M222.781,334.251a2.377,2.377,0,1,0-3.362,0A2.38,2.38,0,0,0,222.781,334.251Zm0,0" transform="translate(-166.357 -251.715)"/><path class="a" d="M188.449,26.137A26.137,26.137,0,1,0,214.586,0,26.167,26.167,0,0,0,188.449,26.137Zm47.522,0A21.385,21.385,0,1,1,214.586,4.753,21.409,21.409,0,0,1,235.971,26.137Zm0,0" transform="translate(-143.277)"/><path class="a" d="M27.87,282.843a2.375,2.375,0,0,0,3.353.02l11.52-11.349a7.18,7.18,0,0,0,1.692-7.374l2.478-2.39a7.086,7.086,0,0,1,4.948-2H83.448a21.274,21.274,0,0,0,14.916-6.06c.165-.161-1.254,1.511,21.55-25.743a9.5,9.5,0,0,0-14.463-12.336L91.429,230.023a9.549,9.549,0,0,0-7.387-3.537h-26.5a30.655,30.655,0,0,0-11.9-2.376c-11.442,0-21.433,5.285-26.794,15.193a7.1,7.1,0,0,0-6.355,1.969l-11.3,11.337a2.376,2.376,0,0,0,0,3.352Zm17.776-53.981a25.938,25.938,0,0,1,10.461,2.177,2.372,2.372,0,0,0,.953.2H84.042a4.752,4.752,0,1,1,0,9.5H64.656a2.376,2.376,0,1,0,0,4.752H84.042a9.49,9.49,0,0,0,9.421-10.746c13.563-13.942,15.476-15.9,15.558-16a4.753,4.753,0,1,1,7.257,6.141L94.965,250.368A16.545,16.545,0,0,1,83.448,255H51.86a11.813,11.813,0,0,0-8.248,3.331l-2.019,1.949L22.978,241.666c4.351-8.162,12.514-12.8,22.668-12.8ZM15.861,244.63A2.37,2.37,0,0,1,18.8,244.3c.411.251-.77-.824,20.58,20.5a2.381,2.381,0,0,1,.013,3.349l-9.821,9.675L6.228,254.29Zm0,0" transform="translate(0 -161.856)"/><path class="a" d="M270.691,42.365v2.784A7.128,7.128,0,0,0,273.067,59a2.376,2.376,0,0,1,0,4.752,4.3,4.3,0,0,1-3.085-1.8,2.376,2.376,0,1,0-3.638,3.058,9.855,9.855,0,0,0,4.347,3.094v2.773a2.376,2.376,0,1,0,4.752,0V68.093a7.128,7.128,0,0,0-2.376-13.848,2.376,2.376,0,0,1,0-4.753,3.815,3.815,0,0,1,2.57,1.242,2.376,2.376,0,0,0,3.305-3.415,9.179,9.179,0,0,0-3.5-2.187V42.365a2.376,2.376,0,1,0-4.752,0Zm0,0" transform="translate(-202.234 -30.484)"/></g></svg>