<svg xmlns="http://www.w3.org/2000/svg" width="108.8" height="108.8" viewBox="0 0 108.8 108.8"><defs><style>.a{fill:#ebaf36;}</style></defs><path class="a" d="M54.4,108.8a54.4,54.4,0,1,1,54.4-54.4A54.46,54.46,0,0,1,54.4,108.8Zm0-104.266A49.867,49.867,0,1,0,104.266,54.4,49.926,49.926,0,0,0,54.4,4.533Z"/><path class="a" d="M17.333,27.667A11.333,11.333,0,1,1,28.667,16.333,11.349,11.349,0,0,1,17.333,27.667Zm0-18.133a6.8,6.8,0,1,0,6.8,6.8A6.808,6.808,0,0,0,17.333,9.533Z" transform="translate(21.2 17.667)"/><path class="a" d="M24.333,36.667A11.333,11.333,0,1,1,35.667,25.333,11.349,11.349,0,0,1,24.333,36.667Zm0-18.133a6.8,6.8,0,1,0,6.8,6.8A6.808,6.808,0,0,0,24.333,18.533Z" transform="translate(45.933 49.467)"/><path class="a" d="M10.266,60.4a2.264,2.264,0,0,1-1.909-3.482L40.09,7.048a2.266,2.266,0,1,1,3.822,2.434L12.179,59.349A2.268,2.268,0,0,1,10.266,60.4Z" transform="translate(28.268 21.204)"/></svg>