<svg xmlns="http://www.w3.org/2000/svg" width="103.763" height="101.175" viewBox="0 0 103.763 101.175"><defs><style>.a{fill:#ebaf36;}</style></defs><g transform="translate(-5 -11.264)"><path class="a" d="M332.434,265.308q.127,0,.254,0a10.138,10.138,0,0,0,10.269-9.7,9.719,9.719,0,0,0-2.716-6.987,10.343,10.343,0,0,0-7.306-3.2,10.152,10.152,0,0,0-10.523,9.7,9.72,9.72,0,0,0,2.716,6.987,10.343,10.343,0,0,0,7.306,3.2Zm-7.542-10.127a7.655,7.655,0,0,1,7.79-7.286c.065,0,.13,0,.195,0a7.878,7.878,0,0,1,5.568,2.434,7.255,7.255,0,0,1,2.033,5.213,7.661,7.661,0,0,1-7.985,7.284,7.878,7.878,0,0,1-5.568-2.434A7.257,7.257,0,0,1,324.892,255.181Z" transform="translate(-251.8 -185.751)"/><path class="a" d="M101.77,11.264H11.994A6.9,6.9,0,0,0,5,18.05V79.7a6.9,6.9,0,0,0,6.994,6.786H66.1L59.865,108a1.24,1.24,0,0,0,1.742,1.456L68.9,105.84l5.117,6.151a1.24,1.24,0,0,0,2.142-.437L82.367,90.82l4.821,19.471a1.24,1.24,0,0,0,2.117.541l5.425-5.905,7.1,3.951A1.24,1.24,0,0,0,103.6,107.4L96.535,86.485h5.235a6.9,6.9,0,0,0,6.994-6.786V18.05a6.9,6.9,0,0,0-6.993-6.786ZM74.441,108.628,70.176,103.5a1.24,1.24,0,0,0-1.5-.318l-5.64,2.794L69.36,84.133a3.078,3.078,0,0,0,1.35,1.994c1.177.682,2.537.165,3.737-.291a4.929,4.929,0,0,1,1.7-.458c.254.079.806.791,1.137,1.217.8,1.028,1.7,2.191,3.089,2.238Zm-7.694-35.7a5.225,5.225,0,0,0-1.993-2.473c-.41-.342-1.168-.974-1.234-1.255.08-.277.87-.871,1.3-1.192a5.233,5.233,0,0,0,2.116-2.371,5.343,5.343,0,0,0-.4-3.223,5.542,5.542,0,0,1-.393-1.648,5.481,5.481,0,0,1,1.675-.328,5.3,5.3,0,0,0,3.1-.969A5.25,5.25,0,0,0,72.184,56.5a5.442,5.442,0,0,1,.5-1.651,5.444,5.444,0,0,1,1.6.532,5.317,5.317,0,0,0,3.219.681,5.164,5.164,0,0,0,2.53-1.969c.353-.413,1.011-1.181,1.269-1.224.273.056.893.854,1.226,1.283a5.15,5.15,0,0,0,2.431,2.086,5.309,5.309,0,0,0,3.245-.529,5.466,5.466,0,0,1,1.615-.457,5.384,5.384,0,0,1,.422,1.671,5.241,5.241,0,0,0,1.124,3.028,5.291,5.291,0,0,0,3.047,1.118,5.509,5.509,0,0,1,1.654.408,5.551,5.551,0,0,1-.475,1.622,5.341,5.341,0,0,0-.568,3.2,5.226,5.226,0,0,0,1.993,2.473c.41.342,1.168.974,1.234,1.254-.08.277-.87.871-1.3,1.193a5.233,5.233,0,0,0-2.117,2.371,5.343,5.343,0,0,0,.4,3.222,5.541,5.541,0,0,1,.393,1.648,5.5,5.5,0,0,1-1.675.328,5.3,5.3,0,0,0-3.1.969,5.251,5.251,0,0,0-1.271,2.971,5.442,5.442,0,0,1-.5,1.651,5.442,5.442,0,0,1-1.6-.532,5.328,5.328,0,0,0-3.219-.682,5.138,5.138,0,0,0-2.52,1.958l-.034.027-.039.032q-.025.021-.049.044l-.041.041c-.014.014-.026.028-.039.042s-.028.033-.041.051l-.031.041c-.013.018-.026.037-.038.057l-.027.046c-.006.011-.013.021-.019.032-.338.381-.733.79-.919.821-.273-.056-.893-.854-1.226-1.282a5.155,5.155,0,0,0-2.431-2.085,2.823,2.823,0,0,0-.762-.1,7.262,7.262,0,0,0-2.484.629,5.456,5.456,0,0,1-1.615.457,5.392,5.392,0,0,1-.422-1.671A5.242,5.242,0,0,0,70.4,79.273a5.293,5.293,0,0,0-3.047-1.118,5.5,5.5,0,0,1-1.654-.408,5.551,5.551,0,0,1,.475-1.622A5.334,5.334,0,0,0,66.747,72.929Zm28.335,29.356a1.24,1.24,0,0,0-1.517.244l-4.525,4.925L83.848,86.482a3.628,3.628,0,0,1,.97-.9,4.919,4.919,0,0,1,1.679.537c1.178.512,2.512,1.093,3.721.468,1.234-.638,1.533-2.083,1.8-3.358a9.977,9.977,0,0,1,.345-1.351l7.866,23.272Zm11.2-22.586A4.419,4.419,0,0,1,101.77,84H95.7l-.951-2.811A3.794,3.794,0,0,0,97.72,79.8c.749-1.159.283-2.553-.129-3.783a4.961,4.961,0,0,1-.388-1.7A5.051,5.051,0,0,1,98.442,73.2c1.055-.794,2.251-1.694,2.287-3.112s-1.113-2.377-2.127-3.223c-.415-.346-1.108-.924-1.178-1.182A4.945,4.945,0,0,1,97.9,64c.473-1.207,1.01-2.575.32-3.77s-2.147-1.42-3.431-1.618a4.967,4.967,0,0,1-1.674-.426,4.979,4.979,0,0,1-.421-1.652c-.2-1.287-.43-2.745-1.632-3.441-1.177-.682-2.537-.165-3.737.291a4.937,4.937,0,0,1-1.7.458c-.254-.08-.806-.792-1.137-1.217-.8-1.034-1.714-2.207-3.117-2.24s-2.369,1.1-3.221,2.09c-.351.41-.938,1.1-1.2,1.163a4.913,4.913,0,0,1-1.679-.537c-1.178-.512-2.513-1.092-3.721-.468-1.234.638-1.533,2.083-1.8,3.358a4.981,4.981,0,0,1-.5,1.631,4.976,4.976,0,0,1-1.7.345c-1.292.134-2.757.286-3.507,1.447s-.283,2.553.129,3.783a4.961,4.961,0,0,1,.388,1.7,5.047,5.047,0,0,1-1.239,1.124c-1.055.794-2.251,1.694-2.287,3.112s1.113,2.377,2.127,3.222c.413.346,1.108.925,1.178,1.182a4.945,4.945,0,0,1-.474,1.677c-.473,1.207-1.01,2.575-.32,3.77s2.147,1.42,3.431,1.618c.24.037.55.085.841.143a1.235,1.235,0,0,0-.169.356L66.815,84H11.994A4.419,4.419,0,0,1,7.48,79.7V18.05a4.419,4.419,0,0,1,4.514-4.305H101.77a4.419,4.419,0,0,1,4.514,4.305Z"/><path class="a" d="M89.091,90.378a1.655,1.655,0,0,0,1.654-1.654V63.673a1.655,1.655,0,0,0-1.654-1.654H63.066a1.655,1.655,0,0,0-1.654,1.654V88.725a1.655,1.655,0,0,0,1.654,1.654ZM63.892,64.5H88.264V87.9H63.892Z" transform="translate(-44.752 -40.264)"/><path class="a" d="M230.735,88.413h.01l39.785-.31a1.24,1.24,0,0,0-.009-2.48h-.01l-39.785.31a1.24,1.24,0,0,0,.01,2.48Z" transform="translate(-178.088 -58.989)"/><path class="a" d="M270.731,159.693h-.01l-39.785.31a1.24,1.24,0,1,0,.009,2.48h.01l39.785-.31a1.24,1.24,0,0,0-.009-2.48Z" transform="translate(-178.255 -117.748)"/><path class="a" d="M70.138,241.649h.01l36.66-.3a1.24,1.24,0,0,0-.021-2.48l-36.659.3a1.24,1.24,0,0,0,.01,2.48Z" transform="translate(-50.686 -180.562)"/><path class="a" d="M107.011,312.939H107l-36.66.3a1.24,1.24,0,1,0,.01,2.48h.01l36.66-.3a1.24,1.24,0,0,0-.01-2.48Z" transform="translate(-50.855 -239.318)"/></g></svg>