<svg xmlns="http://www.w3.org/2000/svg" width="102.949" height="102.949" viewBox="0 0 102.949 102.949"><defs><style>.a{fill:#ebaf36;}</style></defs><g transform="translate(0)"><g transform="translate(0)"><path class="a" d="M79.358,0H6.435A6.434,6.434,0,0,0,0,6.434V57.909a6.434,6.434,0,0,0,6.434,6.434H34.318V60.054H6.435A2.145,2.145,0,0,1,4.29,57.909V6.434A2.145,2.145,0,0,1,6.435,4.289H79.358A2.145,2.145,0,0,1,81.5,6.434V45.04h4.289V6.434A6.434,6.434,0,0,0,79.358,0Z" transform="translate(-0.001)"/></g><g transform="translate(25.737 62.199)"><rect class="a" width="4.289" height="12.869"/></g><g transform="translate(8.579 45.04)"><path class="a" d="M49.1,230.434a2.145,2.145,0,0,1-2.145-2.145V224H42.668v4.289a6.434,6.434,0,0,0,6.434,6.434h4.289v-4.29Z" transform="translate(-42.668 -224)"/></g><g transform="translate(8.579 36.461)"><rect class="a" width="4.289" height="4.289"/></g><g transform="translate(38.603 38.604)"><path class="a" d="M231.768,198.816a23.3,23.3,0,1,0,0,32.955A23.3,23.3,0,0,0,231.768,198.816Zm-16.491,35.492A19.013,19.013,0,1,1,234.3,215.3,19.013,19.013,0,0,1,215.277,234.308Z" transform="translate(-191.986 -191.989)"/></g><g transform="translate(79.214 79.211)"><path class="a" d="M417.063,408.029,403.6,394.57a2.144,2.144,0,0,0-3.033,0l-5.984,5.984a2.145,2.145,0,0,0,0,3.033l13.463,13.465a2.144,2.144,0,0,0,1.516.628h0a2.144,2.144,0,0,0,1.516-.635l5.984-5.984A2.145,2.145,0,0,0,417.063,408.029Zm-7.5,4.474-10.43-10.432,2.951-2.951,10.43,10.432Z" transform="translate(-393.956 -393.942)"/></g><g transform="translate(75.352 75.351)"><g transform="translate(0 0)"><rect class="a" width="4.289" height="10.578" transform="translate(0 3.033) rotate(-45)"/></g></g><g transform="translate(62.199 47.185)"><path class="a" d="M309.334,234.667v4.29a10.737,10.737,0,0,1,10.724,10.724h4.289A15.03,15.03,0,0,0,309.334,234.667Z" transform="translate(-309.334 -234.667)"/></g><g transform="translate(21.448 72.923)"><rect class="a" width="17.158" height="4.289"/></g><g transform="translate(25.737 8.579)"><path class="a" d="M134.435,42.667A6.434,6.434,0,1,0,140.87,49.1,6.434,6.434,0,0,0,134.435,42.667Zm0,8.579A2.145,2.145,0,1,1,136.58,49.1,2.145,2.145,0,0,1,134.435,51.246Z" transform="translate(-128.001 -42.667)"/></g><g transform="translate(40.751 23.593)"><path class="a" d="M209.1,117.333a6.434,6.434,0,1,0,6.434,6.434A6.434,6.434,0,0,0,209.1,117.333Zm0,8.579a2.145,2.145,0,1,1,2.145-2.145A2.145,2.145,0,0,1,209.1,125.912Z" transform="translate(-202.668 -117.333)"/></g><g transform="translate(17.786 15.642)"><g transform="translate(0 0)"><rect class="a" width="15.166" height="4.289" transform="translate(0 10.724) rotate(-45)"/></g></g><g transform="translate(32.791 15.648)"><g transform="translate(0 0)"><rect class="a" width="4.289" height="15.166" transform="translate(0 3.033) rotate(-45)"/></g></g><g transform="translate(55.764 8.579)"><path class="a" d="M283.768,42.667A6.434,6.434,0,1,0,290.2,49.1,6.434,6.434,0,0,0,283.768,42.667Zm0,8.579a2.145,2.145,0,1,1,2.145-2.145A2.145,2.145,0,0,1,283.768,51.246Z" transform="translate(-277.334 -42.667)"/></g><g transform="translate(47.812 15.65)"><g transform="translate(0 0)"><rect class="a" width="15.166" height="4.289" transform="translate(0 10.724) rotate(-45)"/></g></g></g></svg>