<svg xmlns="http://www.w3.org/2000/svg" width="138" height="138" viewBox="0 0 138 138"><defs><style>.a{fill:#ebaf36;}</style></defs><path class="a" d="M321.648,0A29.648,29.648,0,1,0,351.3,29.648,29.682,29.682,0,0,0,321.648,0Zm0,53.906a24.027,24.027,0,0,1-15.8-5.851,13.565,13.565,0,0,1,8.245-4.746,8.083,8.083,0,0,0,15.108,0,13.566,13.566,0,0,1,8.246,4.746,24.028,24.028,0,0,1-15.8,5.851Zm-4.035-17.3a8,8,0,0,1-4.051-6.956V24.258a8.086,8.086,0,1,1,16.172,0v5.391a8,8,0,0,1-4.051,6.956,2.7,2.7,0,0,0-1.34,2.33v1.5a2.7,2.7,0,1,1-5.391,0v-1.5A2.7,2.7,0,0,0,317.613,36.6Zm23.532,7.474a19.022,19.022,0,0,0-9.28-5.709,13.416,13.416,0,0,0,3.26-8.72V24.258a13.477,13.477,0,1,0-26.953,0v5.391a13.416,13.416,0,0,0,3.26,8.72,19.017,19.017,0,0,0-9.281,5.709,24.258,24.258,0,1,1,38.993,0Z" transform="translate(-213.297 0)"/><path class="a" d="M29.648,0A29.648,29.648,0,1,0,44.742,55.168V92.6L37.907,85.77A8.085,8.085,0,0,0,26.394,97.123l4.138,4.824a2.7,2.7,0,1,0,4.092-3.51s-4.29-5-4.338-5.046a2.694,2.694,0,1,1,3.81-3.81l11.436,11.436a2.7,2.7,0,0,0,4.6-1.906V47.437a2.7,2.7,0,1,1,5.391,0V79.781a2.7,2.7,0,0,0,5.391,0V69A2.7,2.7,0,1,1,66.3,69V79.781a2.7,2.7,0,0,0,5.391,0V74.39a2.7,2.7,0,0,1,5.391,0V85.172a2.7,2.7,0,1,0,5.391,0V79.781a2.7,2.7,0,1,1,5.391,0v23.411a18.744,18.744,0,0,1-5.526,13.342L77.876,121a2.7,2.7,0,0,0-.79,1.906v9.7H55.523V123.8a2.7,2.7,0,0,0-.65-1.755l-4.463-5.2a2.7,2.7,0,1,0-4.091,3.51l3.814,4.446V135.3a2.7,2.7,0,0,0,2.7,2.7H79.781a2.7,2.7,0,0,0,2.7-2.7V124.022l3.677-3.677a24.1,24.1,0,0,0,7.1-17.153V79.781a8.081,8.081,0,0,0-11.066-7.514A8.078,8.078,0,0,0,71.41,66.876a8.081,8.081,0,0,0-10.5-5.5V47.437a8.112,8.112,0,0,0-3.725-6.8A29.653,29.653,0,0,0,29.648,0ZM44.742,47.437v1.2a24.256,24.256,0,0,1-30.893-.582,13.565,13.565,0,0,1,8.245-4.746A8.083,8.083,0,0,0,37.206,43.3a13.426,13.426,0,0,1,7.541,3.96c0,.059,0,.118,0,.176ZM25.613,36.6a8,8,0,0,1-4.051-6.956V24.258a8.086,8.086,0,1,1,16.172,0v5.391A8,8,0,0,1,33.684,36.6a2.7,2.7,0,0,0-1.34,2.33v1.5a2.7,2.7,0,0,1-5.391,0v-1.5A2.7,2.7,0,0,0,25.613,36.6Zm26.249,2.807a8.119,8.119,0,0,0-4.956,2.528,18.764,18.764,0,0,0-7.038-3.575,13.416,13.416,0,0,0,3.257-8.717V24.258a13.477,13.477,0,1,0-26.953,0v5.391a13.416,13.416,0,0,0,3.26,8.72,19.017,19.017,0,0,0-9.28,5.709,24.257,24.257,0,1,1,43.755-14.43,23.97,23.97,0,0,1-2.044,9.763Z"/><path class="a" d="M409.195,270.312a2.7,2.7,0,0,0-4.312-3.235l-2.272,3.03A18.86,18.86,0,0,0,372,284.867a18.688,18.688,0,0,0,2.811,9.914l-2.527,5.053a2.7,2.7,0,0,0,2.411,3.9h16.172A18.861,18.861,0,0,0,406.354,274.1Zm-18.328,28.031H379.056l1.284-2.568a2.7,2.7,0,0,0-.256-2.825,13.35,13.35,0,0,1-2.693-8.083,13.475,13.475,0,0,1,21.986-10.448l-8.8,11.735-3.193-3.193a2.7,2.7,0,0,0-3.812,3.812l5.391,5.391a2.7,2.7,0,0,0,4.062-.289l9.847-13.129a13.471,13.471,0,0,1-12,19.6Z" transform="translate(-271.734 -194.304)"/><circle class="a" cx="2.5" cy="2.5" r="2.5" transform="translate(37.999 107)"/></svg>