<svg xmlns="http://www.w3.org/2000/svg" width="137.999" height="137.999" viewBox="0 0 137.999 137.999"><defs><style>.a{fill:#ebaf36;}</style></defs><path class="a" d="M105.386,36.656A36.386,36.386,0,1,0,34.694,48.785H0V138H138V48.785H103.3A36.22,36.22,0,0,0,105.386,36.656Zm-8.086,0A28.346,28.346,0,0,1,73.04,64.667V56.175a12.125,12.125,0,0,0-3.8-23.556v-.006H69a4.043,4.043,0,1,1,4.043-4.043h8.086a12.148,12.148,0,0,0-8.086-11.433V8.379A28.527,28.527,0,0,1,97.3,36.656ZM64.957,8.379v8.758A12.128,12.128,0,0,0,69,40.7a4.043,4.043,0,1,1-4.043,4.043H56.871a12.148,12.148,0,0,0,8.086,11.433v8.491a28.455,28.455,0,0,1,0-56.288Zm39.443,95.9L129.913,78.76v46.608Zm-5.743,5.743,24.065,19.9H15.278l24.94-20.62,10.751,12.534H86.846ZM8.086,125.368V71.836l26.866,31.319Zm121.827-68.5V67.325L83.5,113.741H54.686L8.086,59.417V56.871H38.76a36.358,36.358,0,0,0,60.479,0Z"/><path class="a" d="M241,301h8.086v24.527H241Z" transform="translate(-176.043 -219.872)"/><path class="a" d="M181,286h8.086v16.441H181Z" transform="translate(-132.215 -208.915)"/><path class="a" d="M301,286h8.086v16.441H301Z" transform="translate(-219.872 -208.915)"/></svg>