<svg xmlns="http://www.w3.org/2000/svg" width="88.004" height="103.345" viewBox="0 0 88.004 103.345"><defs><style>.a{fill:#ebaf36;}</style></defs><g transform="translate(0 0.001)"><path class="a" d="M87.9,28.039l0-.08c-.045-.993-.075-2.043-.093-3.212a10.953,10.953,0,0,0-10.313-10.73C65.61,13.354,56.418,9.48,48.565,1.825L48.5,1.761a6.614,6.614,0,0,0-8.989,0l-.067.064C31.588,9.48,22.4,13.354,10.514,14.018A10.952,10.952,0,0,0,.2,24.748C.184,25.909.153,26.959.108,27.959l0,.187c-.231,12.116-.518,27.2,4.527,40.882A52.042,52.042,0,0,0,17.115,88.476c6.276,6.125,14.5,10.987,24.433,14.452a7.567,7.567,0,0,0,1,.273,7.4,7.4,0,0,0,2.908,0,7.591,7.591,0,0,0,1.005-.274c9.924-3.471,18.136-8.336,24.407-14.46A52.115,52.115,0,0,0,83.355,69.014C88.418,55.286,88.132,40.178,87.9,28.039ZM77.665,66.916c-5.32,14.426-16.182,24.333-33.2,30.286a1.523,1.523,0,0,1-.192.052,1.361,1.361,0,0,1-.533,0,1.511,1.511,0,0,1-.191-.051C26.505,91.26,15.637,81.358,10.32,66.932c-4.65-12.616-4.386-26.458-4.154-38.67l0-.068c.047-1.05.079-2.149.1-3.356a4.868,4.868,0,0,1,4.588-4.765A53.205,53.205,0,0,0,28.911,16.1,47.247,47.247,0,0,0,43.628,6.213a.559.559,0,0,1,.75,0A47.265,47.265,0,0,0,59.1,16.1a53.208,53.208,0,0,0,18.06,3.972,4.867,4.867,0,0,1,4.587,4.766c.018,1.214.05,2.313.1,3.356C82.071,40.42,82.328,54.273,77.665,66.916Zm0,0" transform="translate(0 0)"/><path class="a" d="M116.153,128.41a25.755,25.755,0,1,0,25.755,25.755A25.784,25.784,0,0,0,116.153,128.41Zm0,45.446a19.691,19.691,0,1,1,19.69-19.691A19.713,19.713,0,0,1,116.153,173.856Zm0,0" transform="translate(-72.152 -102.492)"/><path class="a" d="M174.058,212.88,162.1,224.842l-3.247-3.247a3.032,3.032,0,0,0-4.288,4.288l5.391,5.392a3.032,3.032,0,0,0,4.288,0l14.107-14.107a3.032,3.032,0,0,0-4.288-4.288Zm0,0" transform="translate(-122.654 -169.202)"/></g></svg>