<svg xmlns="http://www.w3.org/2000/svg" width="132.689" height="116.458" viewBox="0 0 132.689 116.458"><defs><style>.a{fill:#ebaf36;}</style></defs><g transform="translate(0 -31.315)"><g transform="translate(0 31.315)"><path class="a" d="M188.723,31.315H169.377a1.944,1.944,0,0,0,0,3.887h19.345a8.538,8.538,0,0,1,8.528,8.528v75.4a8.538,8.538,0,0,1-8.528,8.528H147.515a1.944,1.944,0,0,0-1.53.745l-11.192,14.279L123.6,128.4a1.944,1.944,0,0,0-1.53-.745H94.337a1.944,1.944,0,1,0,0,3.887h26.789l12.138,15.487a1.944,1.944,0,0,0,3.06,0l12.138-15.487h40.261a12.429,12.429,0,0,0,12.415-12.415v-75.4a12.429,12.429,0,0,0-12.415-12.416Z" transform="translate(-68.449 -31.315)"/><path class="a" d="M16.808,127.655H12.415a8.538,8.538,0,0,1-8.528-8.528v-75.4A8.538,8.538,0,0,1,12.415,35.2H91.835a1.944,1.944,0,0,0,0-3.887H12.415A12.429,12.429,0,0,0,0,43.731v75.4a12.429,12.429,0,0,0,12.415,12.415h4.393a1.944,1.944,0,1,0,0-3.887Z" transform="translate(0 -31.316)"/><path class="a" d="M62.071,128.029a24.68,24.68,0,0,0-20.3,24.3,1.944,1.944,0,0,0,1.944,1.944h67.242a1.944,1.944,0,0,0,1.944-1.944,24.679,24.679,0,0,0-20.3-24.3L86.905,127V124.37a17.63,17.63,0,0,0,8.069-14.8V96.15a17.634,17.634,0,1,0-35.267,0v13.418a17.629,17.629,0,0,0,8.069,14.8V127Zm15.269,10.155a9.58,9.58,0,0,0,9.289-7.288l2.792.505a12.4,12.4,0,0,1-24.161,0l2.792-.505A9.58,9.58,0,0,0,77.341,138.184Zm31.588,12.2H45.754a20.792,20.792,0,0,1,15.689-18.243,16.286,16.286,0,0,0,31.8,0A20.792,20.792,0,0,1,108.928,150.385ZM63.595,96.15a13.746,13.746,0,0,1,27.493,0v2.408H63.595Zm0,13.418v-7.123H91.087v7.123a13.746,13.746,0,0,1-27.492,0ZM77.341,127.2a17.548,17.548,0,0,0,5.677-.943v2.361a5.677,5.677,0,1,1-11.354,0v-2.361A17.549,17.549,0,0,0,77.341,127.2Z" transform="translate(-30.949 -66.283)"/><path class="a" d="M343.919,137.789v10.817a1.944,1.944,0,0,0,1.944,1.944,21.5,21.5,0,0,0,7.07-1.18v21.45h-7.07a1.944,1.944,0,0,0-1.944,1.944v10.817a1.944,1.944,0,0,0,1.944,1.944h28.845a1.944,1.944,0,0,0,1.944-1.944V172.764a1.944,1.944,0,0,0-1.944-1.944h-7.071v-15.7a1.944,1.944,0,1,0-3.887,0v17.643a1.944,1.944,0,0,0,1.944,1.944h7.071v6.93H347.806v-6.93h7.07a1.944,1.944,0,0,0,1.944-1.944V146.43a1.944,1.944,0,0,0-2.831-1.729,17.636,17.636,0,0,1-6.184,1.858v-7a10.976,10.976,0,0,0,9.014-10.785v-4.186h6.93v21.442a1.944,1.944,0,1,0,3.887,0V122.646a1.944,1.944,0,0,0-1.944-1.944H354.877a1.944,1.944,0,0,0-1.944,1.944v6.13a7.078,7.078,0,0,1-7.07,7.07A1.944,1.944,0,0,0,343.919,137.789Z" transform="translate(-254.789 -97.537)"/></g></g></svg>